# xmcd
# 
# Track frame offsets:
#     150
#     29566
#     63030
#     91890
#     122086
#     150941
#     180714
#     206494
#     239588
#     271000
#     299263
#     326485
# 
# Disc length: 4756
# 
# Revision: 2
# Processed by: cddbd v1.5.2PL0 Copyright (c) Steve Scherf et al.
# Submitted via: fre:ac v1.0.17
# 
DISCID=9f12920c
DTITLE=Various Artist - Disco Heaven 01.05(CD2)
DYEAR=2005
DGENRE=House
TTITLE0=Various Artist - Mousse T. with Roachford - Pop Muzak (Ian Pooley Extended Mix)
TTITLE1=Various Artist - Inaya Day- Hold Your Head Up High (Soul Avengerz Vocal)
TTITLE2=Various Artist - The Brand New Heavies - Surrender (Grant Nelson Vocal Re-Edit)
TTITLE3=Various Artist - Scape Feat. D'Empress - Be My Friend (Michael Gray Remix)
TTITLE4=Various Artist - Rasmus Faber - Get Over Here (Club Mix)
TTITLE5=Various Artist - Michael Gray - The Weekend (Original Mix)
TTITLE6=Various Artist - Gadjo - So Many Times (Club Mix)
TTITLE7=Various Artist - Milk and Sugar - Stay Around (Club Mix)
TTITLE8=Various Artist - Soul Central Feat. Kathy Brown - Strings Of Life (Stronger On My Own) (Full Length Vocal)
TTITLE9=Various Artist - LnM Projekt Feat. Bonnie Bailey - Everywhere (Extended Mix)
TTITLE10=Various Artist - Rythme Fatal Feat. Redd-Angel - Man In The Mirror (Club Mix)
TTITLE11=Various Artist - Freeloaders Feat. The Real Thing - So Much Love To Give (Basecore Mix)
EXTD=
EXTT0=
EXTT1=
EXTT2=
EXTT3=
EXTT4=
EXTT5=
EXTT6=
EXTT7=
EXTT8=
EXTT9=
EXTT10=
EXTT11=
PLAYORDER=
